<svg width="39" height="39" viewBox="0 0 39 39" fill="none" xmlns="http://www.w3.org/2000/svg">
<path d="M26.8063 6.42377C26.8063 6.03162 26.9621 5.65553 27.2394 5.37823C27.5167 5.10094 27.8927 4.94515 28.2849 4.94515H31.2421V1.98792C31.2421 1.59576 31.3979 1.21967 31.6752 0.942376C31.9525 0.665081 32.3286 0.509298 32.7208 0.509298C33.1129 0.509298 33.489 0.665081 33.7663 0.942376C34.0436 1.21967 34.1994 1.59576 34.1994 1.98792V4.94515H37.1566C37.5488 4.94515 37.9249 5.10094 38.2022 5.37823C38.4794 5.65553 38.6352 6.03162 38.6352 6.42377C38.6352 6.81593 38.4794 7.19202 38.2022 7.46931C37.9249 7.74661 37.5488 7.90239 37.1566 7.90239H34.1994V10.8596C34.1994 11.2518 34.0436 11.6279 33.7663 11.9052C33.489 12.1825 33.1129 12.3382 32.7208 12.3382C32.3286 12.3382 31.9525 12.1825 31.6752 11.9052C31.3979 11.6279 31.2421 11.2518 31.2421 10.8596V7.90239H28.2849C27.8927 7.90239 27.5167 7.74661 27.2394 7.46931C26.9621 7.19202 26.8063 6.81593 26.8063 6.42377ZM38.3691 16.5301C39.0446 20.5456 38.4265 24.6719 36.604 28.3132C34.7816 31.9545 31.849 34.9224 28.2298 36.7883C24.6106 38.6543 20.4921 39.3218 16.4688 38.6945C12.4455 38.0671 8.72567 36.1774 5.8464 33.2981C2.96713 30.4189 1.07739 26.699 0.45005 22.6757C-0.177295 18.6525 0.49021 14.5339 2.35619 10.9147C4.22217 7.29551 7.19006 4.36297 10.8314 2.5405C14.4726 0.718032 18.5989 0.0999337 22.6144 0.77545C22.9982 0.843327 23.3397 1.06001 23.5646 1.37838C23.7895 1.69674 23.8796 2.09102 23.8153 2.47546C23.7509 2.85989 23.5374 3.20339 23.2212 3.43121C22.9049 3.65904 22.5115 3.75277 22.1265 3.69203C19.7942 3.29969 17.4044 3.42028 15.1235 4.04543C12.8426 4.67057 10.7253 5.78524 8.91892 7.31187C7.11258 8.83849 5.66061 10.7404 4.66404 12.8852C3.66748 15.0301 3.15026 17.3663 3.14839 19.7313C3.14488 23.7129 4.60824 27.5562 7.25895 30.5271C8.90803 28.1374 11.2269 26.2887 13.9238 25.2133C12.4751 24.0723 11.418 22.5082 10.8994 20.7385C10.3809 18.9688 10.4267 17.0815 11.0305 15.339C11.6343 13.5966 12.7661 12.0856 14.2685 11.0162C15.7708 9.94676 17.5691 9.3721 19.4132 9.3721C21.2573 9.3721 23.0556 9.94676 24.5579 11.0162C26.0603 12.0856 27.1921 13.5966 27.7959 15.339C28.3997 17.0815 28.4455 18.9688 27.9269 20.7385C27.4084 22.5082 26.3513 24.0723 24.9026 25.2133C27.5995 26.2887 29.9183 28.1374 31.5674 30.5271C34.2181 27.5562 35.6815 23.7129 35.678 19.7313C35.6781 18.8222 35.6026 17.9147 35.4525 17.0181C35.4185 16.8257 35.4229 16.6286 35.4655 16.4379C35.5082 16.2473 35.5881 16.067 35.7008 15.9075C35.8135 15.7479 35.9567 15.6123 36.1221 15.5084C36.2875 15.4045 36.4719 15.3345 36.6645 15.3022C36.8572 15.27 37.0543 15.2763 37.2445 15.3206C37.4348 15.365 37.6143 15.4467 37.7728 15.5608C37.9313 15.675 38.0656 15.8195 38.1679 15.9858C38.2703 16.1522 38.3386 16.3372 38.3691 16.5301ZM19.4132 24.1672C20.583 24.1672 21.7265 23.8203 22.6991 23.1704C23.6717 22.5205 24.4298 21.5968 24.8775 20.5161C25.3251 19.4354 25.4422 18.2462 25.214 17.0989C24.9858 15.9516 24.4225 14.8977 23.5954 14.0706C22.7682 13.2434 21.7143 12.6801 20.567 12.4519C19.4198 12.2237 18.2305 12.3408 17.1498 12.7885C16.0691 13.2361 15.1454 13.9942 14.4955 14.9668C13.8456 15.9394 13.4987 17.0829 13.4987 18.2527C13.4987 19.8213 14.1218 21.3257 15.231 22.4349C16.3402 23.5441 17.8446 24.1672 19.4132 24.1672ZM19.4132 35.9961C23.0235 35.9998 26.5315 34.7962 29.3791 32.5768C28.3094 30.9039 26.8358 29.5272 25.0942 28.5736C23.3525 27.62 21.3988 27.1201 19.4132 27.1201C17.4275 27.1201 15.4739 27.62 13.7322 28.5736C11.9905 29.5272 10.517 30.9039 9.4473 32.5768C12.2949 34.7962 15.8028 35.9998 19.4132 35.9961Z" fill="#EAEAEA"/>
</svg>
