<svg width="19" height="20" viewBox="0 0 19 20" fill="none" xmlns="http://www.w3.org/2000/svg">
<path d="M17.4151 3.68826H13.8243V2.97011C13.8243 2.39872 13.5973 1.85073 13.1933 1.44669C12.7893 1.04266 12.2413 0.815674 11.6699 0.815674H7.36102C6.78963 0.815674 6.24164 1.04266 5.8376 1.44669C5.43357 1.85073 5.20658 2.39872 5.20658 2.97011V3.68826H1.61585C1.42539 3.68826 1.24272 3.76392 1.10805 3.8986C0.973367 4.03328 0.897705 4.21594 0.897705 4.4064C0.897705 4.59687 0.973367 4.77953 1.10805 4.91421C1.24272 5.04889 1.42539 5.12455 1.61585 5.12455H2.334V18.0512C2.334 18.4321 2.48532 18.7974 2.75468 19.0668C3.02403 19.3361 3.38936 19.4875 3.77029 19.4875H15.2606C15.6416 19.4875 16.0069 19.3361 16.2762 19.0668C16.5456 18.7974 16.6969 18.4321 16.6969 18.0512V5.12455H17.4151C17.6055 5.12455 17.7882 5.04889 17.9229 4.91421C18.0575 4.77953 18.1332 4.59687 18.1332 4.4064C18.1332 4.21594 18.0575 4.03328 17.9229 3.8986C17.7882 3.76392 17.6055 3.68826 17.4151 3.68826ZM6.64287 2.97011C6.64287 2.77965 6.71853 2.59698 6.85321 2.46231C6.98789 2.32763 7.17055 2.25197 7.36102 2.25197H11.6699C11.8604 2.25197 12.043 2.32763 12.1777 2.46231C12.3124 2.59698 12.388 2.77965 12.388 2.97011V3.68826H6.64287V2.97011ZM15.2606 18.0512H3.77029V5.12455H15.2606V18.0512ZM8.07916 8.71528V14.4604C8.07916 14.6509 8.0035 14.8336 7.86882 14.9683C7.73415 15.1029 7.55148 15.1786 7.36102 15.1786C7.17055 15.1786 6.98789 15.1029 6.85321 14.9683C6.71853 14.8336 6.64287 14.6509 6.64287 14.4604V8.71528C6.64287 8.52481 6.71853 8.34215 6.85321 8.20747C6.98789 8.07279 7.17055 7.99713 7.36102 7.99713C7.55148 7.99713 7.73415 8.07279 7.86882 8.20747C8.0035 8.34215 8.07916 8.52481 8.07916 8.71528ZM12.388 8.71528V14.4604C12.388 14.6509 12.3124 14.8336 12.1777 14.9683C12.043 15.1029 11.8604 15.1786 11.6699 15.1786C11.4794 15.1786 11.2968 15.1029 11.1621 14.9683C11.0274 14.8336 10.9517 14.6509 10.9517 14.4604V8.71528C10.9517 8.52481 11.0274 8.34215 11.1621 8.20747C11.2968 8.07279 11.4794 7.99713 11.6699 7.99713C11.8604 7.99713 12.043 8.07279 12.1777 8.20747C12.3124 8.34215 12.388 8.52481 12.388 8.71528Z" fill="#161E31"/>
</svg>
