<svg width="20" height="20" viewBox="0 0 20 20" fill="none" xmlns="http://www.w3.org/2000/svg">
<path d="M18.66 5.10466L14.5018 0.947389C14.3635 0.809112 14.1994 0.699422 14.0187 0.624586C13.8381 0.549749 13.6445 0.51123 13.449 0.51123C13.2534 0.51123 13.0598 0.549749 12.8792 0.624586C12.6985 0.699422 12.5344 0.809112 12.3961 0.947389L0.922719 12.4208C0.783876 12.5586 0.673797 12.7225 0.598883 12.9032C0.523968 13.0838 0.485711 13.2776 0.486336 13.4732V17.6314C0.486336 18.0262 0.643183 18.4049 0.922374 18.6841C1.20156 18.9632 1.58023 19.1201 1.97506 19.1201H17.6067C17.8041 19.1201 17.9934 19.0417 18.133 18.9021C18.2726 18.7625 18.3511 18.5731 18.3511 18.3757C18.3511 18.1783 18.2726 17.989 18.133 17.8494C17.9934 17.7098 17.8041 17.6314 17.6067 17.6314H8.23888L18.66 7.21028C18.7982 7.07203 18.9079 6.9079 18.9828 6.72726C19.0576 6.54661 19.0961 6.353 19.0961 6.15747C19.0961 5.96194 19.0576 5.76832 18.9828 5.58768C18.9079 5.40703 18.7982 5.2429 18.66 5.10466ZM6.13326 17.6314H1.97506V13.4732L10.1631 5.28517L14.3213 9.44337L6.13326 17.6314ZM15.3736 8.39102L11.2163 4.23282L13.4494 1.99973L17.6067 6.15793L15.3736 8.39102Z" fill="#EEEEEE"/>
</svg>
